<svg width="77" height="19" viewBox="0 0 77 19" fill="none" xmlns="http://www.w3.org/2000/svg">
<path d="M0 18.81H18V0.81H0V18.81ZM31.6499 18L30.5159 14.598H25.8179L24.7199 18H22.6499L26.9339 5.436H29.4899L33.7739 18H31.6499ZM28.2119 7.308H28.1219L26.3039 12.852H30.0119L28.2119 7.308ZM35.5759 18V8.64H37.5379V10.44H37.6279C37.7599 9.96 38.0359 9.54 38.4559 9.18C38.8759 8.82 39.4579 8.64 40.2019 8.64H40.7239V10.53H39.9499C39.1699 10.53 38.5699 10.656 38.1499 10.908C37.7419 11.16 37.5379 11.532 37.5379 12.024V18H35.5759ZM45.1288 18C44.4448 18 43.9288 17.826 43.5808 17.478C43.2328 17.118 43.0588 16.614 43.0588 15.966V10.242H41.6008V8.64H42.3928C42.7168 8.64 42.9388 8.568 43.0588 8.424C43.1908 8.28 43.2568 8.046 43.2568 7.722V6.084H45.0208V8.64H46.9828V10.242H45.0208V16.398H46.8388V18H45.1288ZM50.101 6.966C49.693 6.966 49.393 6.87 49.201 6.678C49.021 6.486 48.931 6.24 48.931 5.94V5.634C48.931 5.334 49.021 5.088 49.201 4.896C49.393 4.704 49.693 4.608 50.101 4.608C50.509 4.608 50.803 4.704 50.983 4.896C51.163 5.088 51.253 5.334 51.253 5.634V5.94C51.253 6.24 51.163 6.486 50.983 6.678C50.803 6.87 50.509 6.966 50.101 6.966ZM49.111 8.64H51.073V18H49.111V8.64ZM57.4927 18.216C56.8207 18.216 56.2207 18.102 55.6927 17.874C55.1647 17.646 54.7207 17.322 54.3607 16.902C54.0007 16.47 53.7247 15.954 53.5327 15.354C53.3407 14.742 53.2447 14.064 53.2447 13.32C53.2447 12.576 53.3407 11.904 53.5327 11.304C53.7247 10.692 54.0007 10.176 54.3607 9.756C54.7207 9.324 55.1647 8.994 55.6927 8.766C56.2207 8.538 56.8207 8.424 57.4927 8.424C58.4287 8.424 59.1967 8.634 59.7967 9.054C60.3967 9.474 60.8347 10.032 61.1107 10.728L59.4907 11.484C59.3587 11.052 59.1247 10.71 58.7887 10.458C58.4647 10.194 58.0327 10.062 57.4927 10.062C56.7727 10.062 56.2267 10.29 55.8547 10.746C55.4947 11.19 55.3147 11.772 55.3147 12.492V14.166C55.3147 14.886 55.4947 15.474 55.8547 15.93C56.2267 16.374 56.7727 16.596 57.4927 16.596C58.0687 16.596 58.5247 16.458 58.8607 16.182C59.2087 15.894 59.4847 15.516 59.6887 15.048L61.1827 15.84C60.8707 16.608 60.4027 17.196 59.7787 17.604C59.1547 18.012 58.3927 18.216 57.4927 18.216ZM65.0485 18C64.3765 18 63.8725 17.832 63.5365 17.496C63.2125 17.148 63.0505 16.668 63.0505 16.056V4.68H65.0125V16.398H66.3085V18H65.0485ZM71.8553 18.216C71.1833 18.216 70.5833 18.102 70.0553 17.874C69.5273 17.646 69.0773 17.322 68.7053 16.902C68.3333 16.47 68.0453 15.954 67.8413 15.354C67.6493 14.742 67.5533 14.064 67.5533 13.32C67.5533 12.576 67.6493 11.904 67.8413 11.304C68.0453 10.692 68.3333 10.176 68.7053 9.756C69.0773 9.324 69.5273 8.994 70.0553 8.766C70.5833 8.538 71.1833 8.424 71.8553 8.424C72.5393 8.424 73.1393 8.544 73.6553 8.784C74.1833 9.024 74.6213 9.36 74.9693 9.792C75.3173 10.212 75.5753 10.704 75.7433 11.268C75.9233 11.832 76.0133 12.438 76.0133 13.086V13.824H69.5873V14.13C69.5873 14.85 69.7973 15.444 70.2173 15.912C70.6493 16.368 71.2613 16.596 72.0533 16.596C72.6293 16.596 73.1153 16.47 73.5113 16.218C73.9073 15.966 74.2433 15.624 74.5193 15.192L75.6713 16.326C75.3233 16.902 74.8193 17.364 74.1593 17.712C73.4993 18.048 72.7313 18.216 71.8553 18.216ZM71.8553 9.954C71.5193 9.954 71.2073 10.014 70.9193 10.134C70.6433 10.254 70.4033 10.422 70.1993 10.638C70.0073 10.854 69.8573 11.112 69.7493 11.412C69.6413 11.712 69.5873 12.042 69.5873 12.402V12.528H73.9433V12.348C73.9433 11.628 73.7573 11.052 73.3853 10.62C73.0133 10.176 72.5033 9.954 71.8553 9.954Z" fill="yellow"/>
</svg>
